<?xml version="1.0" encoding="iso-8859-1"?>
<!-- Generator: Adobe Illustrator 19.0.0, SVG Export Plug-In . SVG Version: 6.00 Build 0)  -->
<svg version="1.1" id="Layer_1" xmlns="http://www.w3.org/2000/svg" xmlns:xlink="http://www.w3.org/1999/xlink" x="0px" y="0px"
	 viewBox="0 0 512 512" style="enable-background:new 0 0 512 512;" xml:space="preserve">
<circle style="fill:#FFEDB5;" cx="256" cy="256" r="256"/>
<path style="fill:#FEE187;" d="M510.169,286.634l-90.11-90.109l-18.532,19.344l-96.659-95.727l-50.304-31.075l-23.926,23.926
	l24.135,24.135l-79.508,79.508l-32.789,44.535l-30.422,17.842l-5.746,134.378l92.101,92.101C216.921,509.749,236.197,512,256,512
	C387.017,512,495.028,413.574,510.169,286.634z"/>
<rect x="106.313" y="293.926" style="fill:#E09112;" width="18.963" height="109.468"/>
<rect x="217.505" y="293.926" style="fill:#FF5419;" width="18.963" height="109.468"/>
<rect x="106.313" y="196.525" style="fill:#C92F00;" width="130.155" height="123.225"/>
<rect x="169.236" y="196.525" style="fill:#930000;" width="67.232" height="123.225"/>
<circle style="fill:#C92F00;" cx="115.795" cy="403.394" r="13.791"/>
<circle style="fill:#930000;" cx="226.987" cy="403.394" r="13.791"/>
<rect x="289.909" y="293.926" style="fill:#E09112;" width="18.963" height="109.468"/>
<rect x="401.101" y="293.926" style="fill:#FF5419;" width="18.963" height="109.468"/>
<rect x="289.909" y="196.525" style="fill:#C92F00;" width="130.155" height="123.225"/>
<rect x="354.987" y="196.525" style="fill:#930000;" width="65.077" height="123.225"/>
<circle style="fill:#C92F00;" cx="299.391" cy="403.394" r="13.791"/>
<circle style="fill:#930000;" cx="410.583" cy="403.394" r="13.791"/>
<polygon style="fill:#D0D1D3;" points="281.441,154.422 267.03,162.457 261.032,177.731 246.384,185.134 240.388,200.406 
	225.744,207.805 219.745,223.08 205.093,230.488 199.094,245.763 184.439,253.174 178.652,268.143 142.476,243.017 229.212,118.146 
	"/>
<polygon style="fill:#A6A8AA;" points="160.677,255.659 178.652,268.143 184.439,253.174 199.094,245.763 205.093,230.488 
	219.745,223.08 225.744,207.805 240.388,200.406 246.384,185.134 261.032,177.731 267.03,162.457 281.441,154.422 250.752,133.108 
	"/>
<path style="fill:#386895;" d="M227.585,123.692l49.228,34.192c3.565,2.476,8.461,1.593,10.936-1.97l17.93-25.814
	c2.476-3.565,1.593-8.461-1.97-10.936l-49.228-34.192c-3.565-2.476-8.461-1.593-10.936,1.97l-17.93,25.814
	C223.139,116.319,224.02,121.216,227.585,123.692z M292.274,132.801L292.274,132.801c-2.476,3.565-7.371,4.446-10.936,1.97
	l-33.673-23.388c-3.565-2.476-4.446-7.371-1.97-10.936l0,0c2.476-3.565,7.371-4.446,10.936-1.97l33.673,23.388
	C293.867,124.34,294.75,129.236,292.274,132.801z"/>
<path style="fill:#273B7A;" d="M303.709,119.162l-28.272-19.637l-5.846,7.954l20.713,14.386c3.565,2.476,4.446,7.371,1.97,10.936
	c-2.476,3.563-7.371,4.446-10.936,1.97l-21.057-14.626l-12.776,17.38l29.308,20.356c3.565,2.476,8.461,1.593,10.936-1.97
	l17.93-25.814C308.157,126.533,307.274,121.637,303.709,119.162z"/>
<g>
</g>
<g>
</g>
<g>
</g>
<g>
</g>
<g>
</g>
<g>
</g>
<g>
</g>
<g>
</g>
<g>
</g>
<g>
</g>
<g>
</g>
<g>
</g>
<g>
</g>
<g>
</g>
<g>
</g>
</svg>
